<?xml version="1.0" encoding="utf-8"?>
<!-- Generator: Adobe Illustrator 23.0.0, SVG Export Plug-In . SVG Version: 6.00 Build 0)  -->
<svg version="1.1" id="레이어_1" xmlns="http://www.w3.org/2000/svg" xmlns:xlink="http://www.w3.org/1999/xlink" x="0px"
	 y="0px" viewBox="0 0 157.1 39.1" style="enable-background:new 0 0 157.1 39.1;" xml:space="preserve">
<style type="text/css">
	.st0{fill:#FED136;}
	.st1{fill:url(#SVGID_1_);}
	.st2{fill:url(#SVGID_2_);}
	.st3{fill:url(#SVGID_3_);}
	.st4{fill:url(#SVGID_4_);}
	.st5{fill:url(#SVGID_5_);}
	.st6{fill:url(#SVGID_6_);}
</style>
<path class="st0" d="M12.8,38C9.6,38,7,37,5,35.2c-2-1.9-3.1-4.4-3.1-7.5c0-3.1,1.1-6.4,3.4-9.8c2.3-3.5,5.6-6.8,9.9-10
	c3.4-2.6,6.6-4.5,9.5-5.8C27.8,0.7,30.4,0,32.6,0c1.8,0,3.2,0.5,4.3,1.5c0.8,0.7,1.7,2,1.7,4.1c0,3.8-2.4,7.9-7.2,12.4
	c-2.2,2.1-4.4,3.8-6.6,5.1c-2.1,1.2-3.4,1.8-4.5,1.8c-0.8,0-2-0.3-3.2-1.7c-0.9-1-1.3-2.1-1.3-3.3c0-0.1,0-0.2,0-0.3
	c-0.4,0.5-0.7,1-1,1.5c-1.4,2.3-2.1,4.3-2.1,5.9c0,1.2,0.4,1.6,0.6,1.7c0.4,0.4,1.1,0.6,2,0.6c4.1,0,9.6-2.8,16.4-8.5l2.7-2.2
	l0.9,6.3l-0.7,0.7c-3.9,3.9-7.7,6.9-11.4,9C19.4,36.9,15.9,38,12.8,38z M28.6,8.4c-1.6,0.9-3.3,2.1-5.1,3.4c0.3-0.2,0.6-0.4,1-0.6
	l2.4-1.4l0.1,0.4c0.7-0.7,1.3-1.3,1.9-2C28.8,8.3,28.7,8.3,28.6,8.4z"/>
<linearGradient id="SVGID_1_" gradientUnits="userSpaceOnUse" x1="3.9448" y1="18.9675" x2="36.5698" y2="18.9675">
	<stop  offset="0" style="stop-color:#C1BFBE"/>
	<stop  offset="0" style="stop-color:#FFFFFF"/>
	<stop  offset="0.1583" style="stop-color:#2A201D"/>
	<stop  offset="1" style="stop-color:#000000"/>
</linearGradient>
<path class="st1" d="M32.9,22.5c-7.2,5.9-13.1,8.9-17.7,8.9c-1.5,0-2.6-0.4-3.4-1.1c-0.8-0.8-1.2-1.8-1.2-3.2c0-2,0.8-4.4,2.3-7
	c1.7-2.8,4-5.5,7.1-8.1c2.6-2.3,5.1-4.1,7.5-5.4c1.9-1.1,3.2-1.6,4-1.6c0.6,0,0.9,0.3,0.9,0.9c0,0.7-0.6,1.7-1.7,3.1
	c-1.3,1.7-3,3.3-5.1,4.9L25.5,13c-5.2,3-7.7,5.3-7.7,7c0,0.7,0.3,1.4,0.8,2c0.6,0.6,1.1,1,1.7,1c0.7,0,1.8-0.5,3.5-1.5
	c2-1.2,4.1-2.8,6.3-4.9c4.4-4.1,6.6-7.8,6.6-11c0-1.1-0.3-2-1-2.7c-0.7-0.7-1.7-1-2.9-1c-1.9,0-4.3,0.6-7,1.9
	c-2.8,1.3-5.8,3.1-9.2,5.6c-4.1,3-7.2,6.2-9.4,9.5c-2,3.1-3.1,6-3.1,8.7c0,2.5,0.8,4.5,2.4,6C8,35.2,10.1,36,12.8,36
	c2.8,0,5.9-1,9.5-2.9c3.5-2,7.2-4.8,10.9-8.6L32.9,22.5z"/>
<path class="st0" d="M37,37.1c-1.9,0-3.6-0.9-4.9-2.5c-1.2-1.5-1.8-3.5-1.8-5.8c0-1.6,0.4-3.2,1.2-4.9c0.8-1.6,1.9-3.1,3.4-4.5
	c1.2-1.2,2.6-2.1,4-2.7c1.5-0.7,2.9-1,4.1-1c1.2,0,2.3,0.3,3.2,0.8c1.6,0.9,1.9,2,1.9,2.8c0,0.2,0,0.3-0.1,0.5
	c0.4,0.6,0.7,1.5,0.7,2.7c0,0.6-0.1,1.3-0.2,1.9c0.2-0.1,0.3-0.3,0.5-0.4l3.5-3.4l-0.2,8l-0.6,0.6c-1.6,1.5-2.9,2.7-4.1,3.5
	c-1.4,0.9-2.8,1.4-4,1.4l-0.1,0C41.5,36.1,39.3,37.1,37,37.1z M38.6,27.6c-0.7,0.9-0.9,1.5-1,2c0.3-0.1,0.6-0.3,0.9-0.5v-0.5
	C38.5,28.2,38.5,27.9,38.6,27.6z"/>
<linearGradient id="SVGID_2_" gradientUnits="userSpaceOnUse" x1="32.2944" y1="26.4372" x2="50.5195" y2="26.4372">
	<stop  offset="0" style="stop-color:#C1BFBE"/>
	<stop  offset="0" style="stop-color:#FFFFFF"/>
	<stop  offset="0.1583" style="stop-color:#2A201D"/>
	<stop  offset="1" style="stop-color:#000000"/>
</linearGradient>
<path class="st2" d="M44.4,29.6c1.6-2.6,2.4-5,2.4-7.1c0-1.4-0.5-2.1-1.4-2.1c0.2-0.2,0.4-0.5,0.5-0.7c0.2-0.2,0.3-0.3,0.3-0.4
	c0-0.4-0.3-0.7-0.9-1.1c-0.6-0.3-1.4-0.5-2.2-0.5c-1,0-2.1,0.3-3.3,0.8c-1.2,0.6-2.4,1.3-3.4,2.4c-1.3,1.2-2.3,2.5-3,3.9
	c-0.7,1.4-1,2.8-1,4c0,1.9,0.5,3.4,1.4,4.6c0.9,1.1,2,1.7,3.3,1.7c1.9,0,3.8-1.1,5.8-3.2l1,0c0.9,0,1.9-0.4,2.9-1.1
	c1.1-0.7,2.3-1.8,3.8-3.2l0-2.3c-1.4,1.4-2.6,2.5-3.6,3.2C45.9,29.2,45.1,29.6,44.4,29.6z M40.5,28.5v1.4c-1.1,1.1-2.2,1.7-3.2,1.7
	c-1.1,0-1.7-0.6-1.7-1.8c0-1.2,0.6-2.5,1.8-4c1.4-1.6,3.2-2.9,5.4-3.8C41.3,24.8,40.5,26.9,40.5,28.5z"/>
<path class="st0" d="M59.5,38c-3.2,0-5.8-0.9-7.8-2.8c-2-1.9-3.1-4.4-3.1-7.5c0-3.1,1.1-6.4,3.4-9.8c2.3-3.5,5.6-6.8,9.9-10
	c3.4-2.6,6.6-4.5,9.5-5.8C74.5,0.7,77,0,79.3,0c1.8,0,3.2,0.5,4.3,1.5c0.8,0.7,1.7,2,1.7,4.1c0,3.8-2.4,7.9-7.2,12.4
	c-2.2,2.1-4.4,3.8-6.6,5.1C69.3,24.5,68,25,66.9,25c-0.8,0-2-0.3-3.2-1.7c-0.9-1-1.3-2.1-1.3-3.3c0-0.1,0-0.2,0-0.3
	c-0.4,0.5-0.7,1-1,1.5c-1.4,2.3-2.1,4.3-2.1,5.9c0,1.2,0.4,1.6,0.6,1.7c0.4,0.4,1.1,0.6,2,0.6c4.1,0,9.6-2.8,16.4-8.5l2.7-2.2
	l0.9,6.3l-0.7,0.7c-3.9,3.9-7.7,6.9-11.4,9C66.1,36.9,62.6,38,59.5,38z M75.2,8.4c-1.6,0.9-3.3,2.1-5.1,3.4c0.3-0.2,0.6-0.4,1-0.6
	l2.4-1.4l0.1,0.4c0.7-0.7,1.3-1.3,1.9-2C75.4,8.3,75.3,8.3,75.2,8.4z"/>
<linearGradient id="SVGID_3_" gradientUnits="userSpaceOnUse" x1="50.6094" y1="18.9675" x2="83.2344" y2="18.9675">
	<stop  offset="0" style="stop-color:#C1BFBE"/>
	<stop  offset="0" style="stop-color:#FFFFFF"/>
	<stop  offset="0.1583" style="stop-color:#2A201D"/>
	<stop  offset="1" style="stop-color:#000000"/>
</linearGradient>
<path class="st3" d="M72.3,13.9L72.1,13c-5.2,3-7.7,5.3-7.7,7c0,0.7,0.3,1.4,0.8,2c0.6,0.6,1.1,1,1.7,1c0.7,0,1.8-0.5,3.5-1.5
	c2-1.2,4.1-2.8,6.3-4.9c4.4-4.1,6.6-7.8,6.6-11c0-1.1-0.3-2-1-2.7c-0.7-0.7-1.7-1-2.9-1c-1.9,0-4.3,0.6-7,1.9
	c-2.8,1.3-5.8,3.1-9.2,5.6c-4.1,3-7.2,6.2-9.4,9.5c-2,3.1-3.1,6-3.1,8.7c0,2.5,0.8,4.5,2.4,6c1.6,1.5,3.8,2.3,6.4,2.3
	c2.8,0,5.9-1,9.5-2.9c3.5-2,7.2-4.8,10.9-8.6l-0.3-1.8c-7.2,5.9-13.1,8.9-17.7,8.9c-1.5,0-2.6-0.4-3.4-1.1c-0.8-0.8-1.2-1.8-1.2-3.2
	c0-2,0.8-4.4,2.3-7c1.7-2.8,4-5.5,7.1-8.1c2.6-2.3,5.1-4.1,7.5-5.4c1.9-1.1,3.2-1.6,4-1.6c0.6,0,0.9,0.3,0.9,0.9
	c0,0.7-0.6,1.7-1.7,3.1C76.1,10.7,74.4,12.3,72.3,13.9z"/>
<path class="st0" d="M104.9,37.7c-2.8,0-5.2-0.6-7.1-1.8c-2.7-1.7-3.2-3.9-3.2-5.4c0-2.1,0.8-4.3,2.5-6.7l0.9-1.2
	c-1.7-0.8-2.1-2.1-2.1-3.1c0-2.5,2.9-3.5,8.1-4.3c0.3-0.3,0.5-0.6,0.8-0.8l-4.9,1.6l-1.6,0.5c-0.8,0.2-1.4,0.3-1.9,0.3
	c-1.8,0-3-1.2-3-2.8c0-1.1,0.5-2.4,1.8-4.4c1.1-1.9,2.4-3.2,3.7-4.1c0.8-0.5,1.8-1,3-1.5c1.2-0.4,2.7-0.9,4.5-1.4
	c2.2-0.6,4.1-1,5.7-1.3c1.7-0.3,3.4-0.4,5.1-0.4c3.1,0,5.7,0.7,7.7,1.9c2.8,1.8,3.4,4.2,3.4,5.9c0,3.3-1.9,6.1-5.6,8.3
	c-1.8,1.1-4.1,2-6.8,2.7c0.7,0.3,1.4,0.5,2.1,0.8c3.1,1.5,4.6,3.4,4.6,5.7c0,2.5-1.7,4.9-5.3,7.4c-2,1.4-4.1,2.5-6.2,3.2
	C108.9,37.4,106.8,37.7,104.9,37.7z M103.8,27.4c0.1,0.1,0.2,0.1,0.3,0.2c0.5,0.3,1.3,0.5,2.2,0.5c1.9,0,3.7-0.5,5.4-1.5
	c0.8-0.5,1.3-0.9,1.6-1.1c-0.8-0.4-2.7-1-7.1-1.5l-1.3,1.5C104.2,26.5,103.9,27.1,103.8,27.4z M116.4,10.4c0,0.1,0,0.3,0,0.5
	c0,0.9-0.4,1.6-0.9,2.1c1-0.3,1.8-0.7,2.6-1.1c1.1-0.6,1.7-1,1.9-1.3c-0.3-0.2-1-0.3-2.1-0.3C117.5,10.3,117,10.3,116.4,10.4z"/>
<linearGradient id="SVGID_4_" gradientUnits="userSpaceOnUse" x1="95.2935" y1="19.2598" x2="126.209" y2="19.2598">
	<stop  offset="0" style="stop-color:#C1BFBE"/>
	<stop  offset="0" style="stop-color:#FFFFFF"/>
	<stop  offset="0.1583" style="stop-color:#2A201D"/>
	<stop  offset="1" style="stop-color:#000000"/>
</linearGradient>
<path class="st4" d="M117,22.1c-2.3-1.1-5.6-1.9-9.9-2.3l0.9-1c5.9-0.7,10.4-1.9,13.5-3.7c3.1-1.8,4.6-4,4.6-6.5
	c0-1.7-0.8-3.1-2.5-4.2c-1.7-1.1-3.8-1.6-6.6-1.6c-1.6,0-3.2,0.1-4.8,0.4c-1.6,0.3-3.4,0.7-5.5,1.3c-1.8,0.5-3.2,0.9-4.3,1.3
	c-1.1,0.4-2,0.8-2.7,1.3c-1.1,0.7-2.1,1.8-3.1,3.4c-1,1.6-1.5,2.7-1.5,3.3c0,0.5,0.3,0.8,1,0.8c0.3,0,0.7-0.1,1.4-0.3
	c0.6-0.2,1.2-0.3,1.6-0.5l6.7-2.2l-1.8-0.5c5.5-2,10.1-3,13.9-3c1.3,0,2.4,0.2,3.2,0.6c0.8,0.4,1.1,0.9,1.1,1.6c0,1-1.1,2.1-3.2,3.2
	c-2.2,1.1-5.1,2-8.9,2.6l3.7-4.4c0.4-0.5,0.5-0.8,0.5-1c0-0.3-0.1-0.4-0.4-0.4c-1.2,0-2.6,0.6-4.1,1.7c-1.4,1.1-3.1,2.6-5,4.8
	c-4.8,0.8-7.2,1.6-7.2,2.5c0,1,1.1,1.7,3.4,1.9l-2.5,3.6c-1.4,2.1-2.2,3.9-2.2,5.6c0,1.5,0.8,2.8,2.3,3.8c1.5,1,3.5,1.5,6,1.5
	c1.7,0,3.6-0.3,5.5-1c1.9-0.7,3.9-1.7,5.7-2.9c2.9-2,4.4-4,4.4-5.8C120.5,24.6,119.4,23.3,117,22.1z M112.8,28.4
	c-2,1.2-4.1,1.7-6.4,1.7c-1.4,0-2.4-0.3-3.3-0.8c-0.8-0.5-1.3-1.1-1.3-1.7c0-0.9,0.6-2,1.7-3.4l2-2.3c6.8,0.8,10.3,1.9,10.3,3.4
	C115.8,26.2,114.8,27.2,112.8,28.4z"/>
<path class="st0" d="M126,37.1c-1.9,0-3.6-0.8-4.9-2.5c-1.2-1.5-1.8-3.5-1.8-5.8c0-1.6,0.4-3.2,1.2-4.9c0.8-1.6,1.9-3.1,3.4-4.5
	c1.2-1.2,2.6-2.1,4-2.7c1.5-0.7,2.9-1,4.1-1c1.2,0,2.3,0.3,3.2,0.8c1.6,0.9,1.9,2,1.9,2.8c0,0.2,0,0.3-0.1,0.5
	c0.4,0.6,0.7,1.5,0.7,2.7c0,0.6-0.1,1.3-0.2,1.9c0.2-0.1,0.3-0.3,0.5-0.4l3.5-3.4l-0.2,8l-0.6,0.6c-1.6,1.5-2.9,2.7-4.1,3.5
	c-1.4,0.9-2.8,1.4-4,1.4l-0.1,0C130.4,36.1,128.2,37.1,126,37.1z M127.6,27.6c-0.7,0.9-0.9,1.5-1,2c0.3-0.1,0.6-0.3,0.9-0.5v-0.5
	C127.5,28.2,127.5,27.9,127.6,27.6z"/>
<linearGradient id="SVGID_5_" gradientUnits="userSpaceOnUse" x1="121.2588" y1="26.4372" x2="139.4834" y2="26.4372">
	<stop  offset="0" style="stop-color:#C1BFBE"/>
	<stop  offset="0" style="stop-color:#FFFFFF"/>
	<stop  offset="0.1583" style="stop-color:#2A201D"/>
	<stop  offset="1" style="stop-color:#000000"/>
</linearGradient>
<path class="st5" d="M139.5,25.4c-1.4,1.4-2.6,2.5-3.6,3.2c-1,0.7-1.8,1-2.5,1c1.6-2.6,2.4-5,2.4-7.1c0-1.4-0.5-2.1-1.4-2.1
	c0.2-0.2,0.4-0.5,0.5-0.7c0.2-0.2,0.3-0.3,0.3-0.4c0-0.4-0.3-0.7-0.9-1.1c-0.6-0.3-1.4-0.5-2.2-0.5c-1,0-2.1,0.3-3.3,0.8
	c-1.2,0.6-2.4,1.3-3.4,2.4c-1.3,1.2-2.3,2.5-3,3.9c-0.7,1.4-1,2.8-1,4c0,1.9,0.5,3.4,1.4,4.6c0.9,1.1,2,1.7,3.3,1.7
	c1.9,0,3.8-1.1,5.8-3.2l1,0c0.9,0,1.9-0.4,2.9-1.1c1.1-0.7,2.3-1.8,3.8-3.2L139.5,25.4z M129.5,28.5v1.4c-1.1,1.1-2.2,1.7-3.2,1.7
	c-1.1,0-1.7-0.6-1.7-1.8c0-1.2,0.6-2.5,1.8-4c1.4-1.6,3.2-2.9,5.4-3.8C130.2,24.8,129.5,26.9,129.5,28.5z"/>
<path class="st0" d="M145.5,37.4c-1,0-3.1-0.4-4.1-2.9c-2.6,1.9-3.2,2-3.8,2c-1.5,0-2.6-1.1-2.6-2.6c0-1.2,0.5-2.6,6.1-8
	c0-0.3,0.1-0.6,0.1-1c-0.3,0.2-1.3,0.9-1.3,0.9h-0.6c-1.2,0-2.4-0.9-2.4-2.5c0-0.7,0.3-1.4,0.8-2c0.3-0.4,0.8-0.9,1.4-1.5
	c4.9-4.8,6.1-5.2,7.2-5.2c0.7,0,1.6,0.2,2.4,1.1c0.6,0.7,0.9,1.5,0.9,2.4c0,0.1,0,0.1,0,0.2c2.3-1.6,3.2-1.8,3.9-1.8
	c1.6,0,2.7,1.2,2.7,2.8c0,1.1-0.5,2.2-3.3,5l-0.4,0.4L151,25l-2.2,2.2l-0.1,1.1c0.8-0.6,2.3-1.7,5-4.1l3.3-3v7.3l-0.5,0.6
	C149.8,36.4,147.2,37.4,145.5,37.4z"/>
<linearGradient id="SVGID_6_" gradientUnits="userSpaceOnUse" x1="136.918" y1="25.8974" x2="155.0527" y2="25.8974">
	<stop  offset="0" style="stop-color:#C1BFBE"/>
	<stop  offset="0" style="stop-color:#FFFFFF"/>
	<stop  offset="0.1583" style="stop-color:#2A201D"/>
	<stop  offset="1" style="stop-color:#000000"/>
</linearGradient>
<path class="st6" d="M148.2,30.7c-1,0-1.4-0.8-1.4-2.3l0.1-2.1l3.1-3.1l1.6-0.4c1.8-1.9,2.7-3.1,2.7-3.6c0-0.5-0.2-0.8-0.7-0.8
	c-0.9,0-3.1,1.5-6.6,4.5c0.5-2.5,0.7-4.2,0.7-5c0-0.4-0.1-0.8-0.4-1.1s-0.6-0.5-1-0.5c-0.7,0-2.6,1.5-5.8,4.6
	c-0.6,0.6-1,1.1-1.3,1.4c-0.3,0.3-0.4,0.6-0.4,0.8c0,0.4,0.1,0.5,0.4,0.5c0.6-0.4,1.2-0.7,1.8-1.1c0.6-0.4,1.4-0.8,2.3-1.2
	c0,0.7,0,1.6-0.1,2.7c-0.1,1.1-0.2,2-0.3,2.7c-4,3.8-6,6.1-6,7c0,0.4,0.2,0.6,0.6,0.6c0.5,0,2.2-1.2,5.3-3.7c0,3.1,0.9,4.6,2.7,4.6
	c1.7,0,4.9-2.6,9.6-7.7v-2C151.3,29,149,30.7,148.2,30.7z"/>
</svg>
